<svg id="Capa_1" data-name="Capa 1" xmlns="http://www.w3.org/2000/svg" viewBox="0 0 31.65 31.65"><title>world-map</title><path id="Trazado_4" data-name="Trazado 4" d="M29.77,15.33,27,14.25a1.78,1.78,0,0,0-.56-.1l-6.3,0L10.63,1.9a.9.9,0,0,0-.71-.35H8.71a.91.91,0,0,0-.92.91.87.87,0,0,0,.06.32l4.21,11.29L7.6,14,3.73,10.11a.92.92,0,0,0-.65-.28H2.43a.92.92,0,0,0-.92.91,1,1,0,0,0,.06.34l1.85,4.71L1.51,20.47A.92.92,0,0,0,2,21.66a1,1,0,0,0,.34.07H3a.94.94,0,0,0,.65-.26L7.58,17.6l4.46,0L7.68,28.85A.91.91,0,0,0,8.2,30a.71.71,0,0,0,.32.07H9.73a.88.88,0,0,0,.72-.34l9.62-12.09,6.3,0a1.8,1.8,0,0,0,.57-.1l2.82-1a.67.67,0,0,0,.4-.86A.68.68,0,0,0,29.77,15.33Z"/></svg>