<?xml version="1.0" encoding="utf-8"?>
<!-- Generator: Adobe Illustrator 23.0.2, SVG Export Plug-In . SVG Version: 6.00 Build 0)  -->
<svg version="1.1" id="Capa_1" xmlns="http://www.w3.org/2000/svg" xmlns:xlink="http://www.w3.org/1999/xlink" x="0px" y="0px"
	 viewBox="0 0 31.6 17.4" style="enable-background:new 0 0 31.6 17.4;" xml:space="preserve">
<title>world-map</title>
<path d="M10.8,10.9c-0.3-0.2-0.5-0.5-0.8-0.7C9.9,10,9.6,9.9,9.4,9.9s-1-0.4-1.3-0.2s-0.5,0.3-0.6,0S7.4,9.3,7.2,9.3
	S7.1,9.1,7.1,8.9S7,8.6,6.9,8.7S6.4,9.1,6.3,9S6,8.1,6.4,8C6.7,7.9,7,7.9,7.3,8.1c0.1,0.1,0.2,0.4,0.3,0.4s0-0.3,0.1-0.5
	s0.3-0.4,0.5-0.7s0.2-0.4,0.3-0.5C8.7,6.7,8.9,6.6,9,6.5c0.2-0.1,0.4-0.2,0.5-0.3s0.5-0.3,0.6-0.2s0.2,0,0.1-0.2
	C10.1,5.3,10,5,9.8,4.6C9.6,4.4,9.5,4.2,9.4,4C9.3,3.7,9.2,3.5,9.1,3.7S8.9,4.1,8.8,3.9S8.7,3.7,8.6,3.6C8.5,3.5,8.4,3.4,8.2,3.4
	c-0.2,0-0.3,0-0.3,0.2S7.8,4,7.9,4.2s0.2,0.4,0,0.5s0,0.5-0.1,0.5S7.6,5.2,7.6,5s0.1-0.4-0.2-0.4C7.2,4.6,7,4.5,6.8,4.4
	C6.6,4.2,6.5,4.3,6.5,4s0-0.4,0.2-0.6s0.3-0.3,0.4-0.2s0.3,0.1,0.3,0s0.3,0,0.3-0.2S7.5,3,7.5,2.8s0.1-0.1,0.2-0.4S7.5,1.6,7.2,1.7
	S6.6,2.1,6.5,1.9s-0.3-0.1-0.6,0C5.3,2,4.8,1.9,4.2,1.7c0,0-0.2-0.1-0.4,0c-0.2,0.1-0.5,0.1-0.7,0C3,1.7,2.9,1.8,2.7,1.8
	C2.4,1.7,2.1,1.6,1.8,1.5C1.6,1.4,1.4,1.4,1.3,1.4S0.9,1.3,0.8,1.5S0.5,1.7,0.4,1.9S0.1,1.9,0.2,2.2S-0.1,2.6,0,2.9s0,1,0.4,1.2
	s0.8,0.2,1.1,0s0.7-0.2,0.8,0S2.6,4.7,3,4.9c0.4,0.2,0.7,0.6,0.8,1.1c0,0.6,0.1,1.2,0.4,1.7C4.6,8.1,5,9.1,5.1,8.8s0-0.4,0.1-0.3
	c0.1,0.2,0.3,0.6,0.7,0.7s0.6,0.1,0.7,0.3C6.8,9.7,7,9.8,7.1,9.8c0.2,0.1,0.5,0.3,0.6,0.4c0.1,0.2,0.1,0.4,0,0.6
	c-0.1,0.2-0.1,0.4-0.1,0.6c0.1,0.3,0.3,0.7,0.6,0.9c0.2,0.1,0.4,0.4,0.4,0.7c-0.1,0.6-0.2,1.3-0.3,1.9c0,0.3-0.3,1.2,0,1.6
	c0.2,0.3,0.5,0.5,0.8,0.5c0.2,0,0-0.1-0.1-0.2c-0.1-0.2-0.1-0.4,0-0.6c0.1-0.1,0.1-0.3,0-0.5c-0.1-0.2,0-0.3,0.1-0.5
	c0.1-0.1,0.6-0.5,0.8-0.7s1.1-1.3,1.2-1.4c0.2-0.2,0.4-0.4,0.5-0.7c0.1-0.4,0.4-1.1,0.2-1.3C11.5,11,11.2,10.9,10.8,10.9z"/>
<path d="M13.1,0.6L13.4,0H9.7c0.1,0.4,0.2,0.8,0.2,1.2c0,0.3,0.1,0.2,0.2,0.4c0.1,0.2,0.1,0.3,0,0.5C10,2.4,10,2.7,10.2,3
	c0.2,0.4,0.4,0.9,0.6,1s0.1,0.3,0.3,0.2s0.1-0.3,0.3-0.6s0.1-0.6,0.4-0.7c0.4-0.2,0.8-0.5,1.2-0.9c0.2-0.2,0.4-0.3,0.3-0.6
	C13,1.2,13,0.9,13.1,0.6z"/>
<path d="M31.1,2.1c-0.1-0.1-1-0.8-1.3-0.7c-0.4,0-0.8-0.1-1.1-0.3c-0.5-0.2-0.9-0.3-1.4-0.3c-0.5-0.1-1.1-0.2-1.6-0.4
	c-0.4-0.2-0.7-1-1.5-0.9c-0.4,0-0.9,0.2-1.3,0.3c-0.2,0.2-0.3,0.4-0.5,0.5S22,0.4,22,0.6s0.1,0.7,0,0.6s-0.3-0.4-0.4-0.2
	s-0.2,0.3-0.3,0.2S21,1.3,21,1.4c-0.2,0.2-0.4,0.4-0.7,0.4c-0.1,0-0.3,0.1-0.4,0.2c-0.1,0-0.9,0.4-1,0.3s-0.2-0.1-0.3,0
	c-0.2,0-0.3-0.1-0.5-0.3c-0.2-0.2-0.2-0.1-0.4-0.4s-0.3-0.4-0.4-0.3c-0.5,0.4-1,0.8-1.4,1.3c-0.3,0.4-0.9,0.8-0.6,1.1
	s0.4,0.2,0.5,0.4c0,0.1,0.1,0.3,0.1,0.4c0.1,0.1,0.3,0.3,0.5,0s0.2-0.5,0.3-0.4s0.2,0.2,0.1,0.4S16.6,5,16.4,5s-0.6-0.2-0.7-0.1
	S15.5,5,15.4,5.1S15,5.6,14.8,5.6s-0.5,0-0.3,0.2s0.4,0.6,0.2,0.6S14.1,6.3,14,6.5S13.9,6.9,14,7s0.2,0.4,0.4,0.3s0.6-0.2,0.6-0.4
	s0.2-0.5,0.4-0.4s0.8,0.3,0.8,0.4s-0.1,0.4,0,0.3S16.4,7,16.5,7s0.2,0.1,0.2,0.2s0.3,0.2,0.3,0s0.1-0.1,0.2,0s0.5,0.1,0.6,0.2
	c0.1,0.1,0.1,0.2,0,0.4c0,0,0,0,0,0c-0.1,0.2-0.4,0.3-0.6,0.1c0,0,0,0,0,0c-0.3-0.1-0.6,0.1-0.9,0s-0.2-0.4-0.5-0.5
	c-0.5-0.1-1,0-1.4,0.1c-0.3,0.1-0.3,0.1-0.4,0.2S13.3,8.6,13.3,9s0.3,1.7,1.1,1.5s1.3,0,1.2,0.2s0,0.3,0.1,0.6
	c0.2,0.8,0.4,1.6,0.6,2.4c0.1,0.3,0,0.7,0.3,0.6c0.4,0,0.7-0.2,1-0.5c0.2-0.4,0.2-0.8,0.4-1s0.5-0.2,0.5-0.5s-0.1-1,0.1-1.1
	c0.3-0.3,0.6-0.7,0.9-1.2c0.1-0.3,0.2-0.4-0.1-0.4s-0.7,0-0.9-0.3c-0.2-0.3-0.3-0.5-0.4-0.8c0-0.1,0.2-0.1,0.3,0.1s0.4,0.9,0.8,0.8
	S19.9,9.2,20,9s-0.2-0.5-0.4-0.5s-0.4-0.1-0.4-0.3s0-0.1,0.3,0s0.3,0.2,0.6,0.3C20.4,8.6,20.8,8.8,21,9c0.2,0.4,0.4,0.8,0.6,1.2
	c0.1,0.1,0.2,0.1,0.3-0.1c0.2-0.4,0.4-0.7,0.6-1c0.2-0.2,0.2-0.4,0.3-0.3s0.6,0.5,0.6,0.7s0,0.7,0.1,0.5s0.2-0.5,0.3-0.3
	s0.1,0.3,0.3,0.2s0.6-0.2,0.4-0.6s-0.1-0.5,0.1-0.6s1-0.2,1-0.6s-0.3-0.7-0.1-1s0.4-0.5,0.4-0.3s-0.1,0.6,0.1,0.6s0.5-0.1,0.5-0.2
	s0-0.5,0-0.6c0.3-0.3,0.6-0.6,0.9-1c0.1-0.3,0.2-0.5,0.1-0.7S27,4.9,27.2,4.6c0.2-0.2,0.4-0.4,0.7-0.5c0.7-0.1,0.5,0.8,0.5,1
	s0,0.7,0.1,0.4c0.1-0.3,0.3-0.5,0.5-0.7c0.2-0.2,0.3-0.3,0.3-0.5s0-0.3,0.2-0.3s1.1-0.4,1.1-0.7s-0.1-0.4,0.1-0.4s0.4,0.2,0.5,0.1
	s0.3-0.3,0.3-0.5S31.3,2.2,31.1,2.1z"/>
<path d="M27.4,6.1c-0.1,0.2-0.2,0.3-0.2,0.5c0,0.2-0.1,0.3-0.2,0.4c-0.1,0.2-0.3,0.2-0.5,0.4c-0.1,0.1-0.2,0.2-0.2,0.4
	c-0.1,0.2,0.6-0.3,0.9-0.4s0.2-0.3,0.2-0.6c0-0.2,0.1-0.3,0.2-0.4c0.1-0.1,0-0.3,0-0.5S27.5,6,27.4,6.1z"/>
<path d="M25,11.7c0.1-0.1,0-0.2,0.1-0.2s0.2,0.1,0.4,0s0.3,0,0.3-0.2s0-0.3,0-0.5s-0.3-0.2-0.4,0S25,11.2,25,11.1s0.1-0.3,0-0.4
	s0-0.2-0.2-0.1s-0.4,0.1-0.4,0.2s-0.2,0.4-0.3,0.2c-0.2-0.2-0.4-0.3-0.5-0.5c0,0-0.5-0.4-0.3-0.2s0.4,0.7,0.5,0.9s0.2,0.3,0.4,0.3
	s0.2-0.1,0.4,0S25,11.7,25,11.7z"/>
<path d="M27.9,11.3c-0.2-0.1-0.1-0.2-0.4-0.2s-0.5,0-0.5,0s-0.4-0.2-0.4,0s0.4,0.2,0.4,0.3s-0.1,0.2,0,0.2s0.3,0.3,0.5,0.2
	s0.3,0.1,0.4,0.1s0.3,0,0.3-0.1c-0.1-0.1-0.1-0.2-0.1-0.3C28.1,11.4,28.1,11.5,27.9,11.3z"/>
<path d="M27.8,12.4c-0.1-0.2-0.3-0.7-0.3-0.5c-0.1,0.2-0.3,0.3-0.5,0.4c-0.1,0,0-0.1,0-0.2s-0.1-0.2-0.3-0.1s-0.3,0.3-0.4,0.3
	c-0.1-0.1-0.3,0-0.4,0.1c-0.1,0.1-0.2,0.4-0.4,0.4s-0.6,0.1-0.6,0.3s0.1,0.5,0.1,0.6s-0.2,0.5,0.1,0.6c0.1,0.1,0.3,0.1,0.5,0
	c0.3-0.2,0.7-0.3,1.1-0.3c0.1,0.1,0.3,0.3,0.4,0.3s0.2,0.3,0.4,0.3c0.1,0,0.3,0.1,0.4,0.1c0.2,0,0.3-0.1,0.4-0.3
	c0.1-0.2,0.2-0.6,0.3-0.8c0.1-0.2,0.1-0.4,0-0.6C28.2,13,27.9,12.7,27.8,12.4z"/>
</svg>
