<?xml version="1.0" standalone="no"?>
<!DOCTYPE svg PUBLIC "-//W3C//DTD SVG 20010904//EN"
 "http://www.w3.org/TR/2001/REC-SVG-20010904/DTD/svg10.dtd">
<svg version="1.0" xmlns="http://www.w3.org/2000/svg"
 width="160.000000pt" height="160.000000pt" viewBox="0 0 160.000000 160.000000"
 preserveAspectRatio="xMidYMid meet">
<metadata>
Created by potrace 1.11, written by Peter Selinger 2001-2013
</metadata>
<g transform="translate(0.000000,160.000000) scale(0.100000,-0.100000)"
fill="#000000" stroke="none">
<path d="M573 1394 c-8 -4 -7 -15 4 -42 32 -76 173 -455 170 -458 -2 -3 -68
-7 -264 -19 l-81 -5 -52 62 c-51 61 -52 62 -98 59 -26 -1 -48 -4 -49 -5 -1 -1
14 -50 35 -110 l36 -108 -22 -106 c-12 -59 -22 -112 -22 -118 0 -14 93 -6 102
9 3 7 24 37 45 67 31 44 44 55 68 56 200 10 301 17 308 21 12 7 8 -12 -39
-200 -26 -100 -52 -207 -59 -237 -7 -30 -16 -63 -20 -73 -7 -17 -3 -18 60 -13
37 3 69 6 70 8 3 3 27 48 134 243 39 72 75 137 80 145 5 8 24 43 42 78 18 34
39 62 48 63 9 1 36 2 61 4 277 15 296 17 325 34 59 33 57 128 -3 163 -29 16
-39 16 -269 3 -106 -6 -135 -4 -145 6 -8 8 -87 119 -178 247 l-164 232 -56 -1
c-30 0 -60 -3 -67 -5z"/>
</g>
</svg>
